<svg width="151" height="30" viewBox="0 0 151 30" fill="none" xmlns="http://www.w3.org/2000/svg">
<ellipse cx="101.25" cy="15" rx="15" ry="15" fill="#C2025E"/>
<path fill-rule="evenodd" clip-rule="evenodd" d="M104.914 6.21455C104.231 5.87294 103.662 5.35296 103.262 4.71883C102.93 4.1934 103.279 3.55327 103.874 3.37466C104.469 3.19606 105.086 3.58001 105.567 3.97352C105.675 4.06184 105.793 4.13868 105.92 4.20209L106.608 4.54629C106.703 4.59369 106.8 4.63609 106.899 4.67342C107.48 4.89328 107.999 5.37834 107.999 5.99967C107.999 6.62099 107.49 7.13649 106.883 7.00704C106.44 6.91276 106.01 6.76249 105.602 6.55875L104.914 6.21455Z" fill="#760039"/>
<path d="M139.045 18.6737V18.1337C139.045 17.7557 139.234 17.5667 139.612 17.5667H141.907C142.285 17.5667 142.474 17.7557 142.474 18.1337V18.3497C142.474 19.0337 142.609 19.5017 142.879 19.7537C143.149 20.0057 143.644 20.1317 144.364 20.1317H145.633C146.335 20.1317 146.821 19.9967 147.091 19.7267C147.379 19.4567 147.523 18.9527 147.523 18.2147V17.8907C147.523 17.3687 147.307 16.9727 146.875 16.7027C146.461 16.4147 145.939 16.2437 145.309 16.1897C144.679 16.1357 143.995 16.0367 143.257 15.8927C142.537 15.7307 141.862 15.5327 141.232 15.2987C140.602 15.0467 140.071 14.5697 139.639 13.8677C139.225 13.1477 139.018 12.2297 139.018 11.1137V10.1687C139.018 8.76472 139.414 7.67572 140.206 6.90172C140.998 6.12772 142.096 5.74072 143.5 5.74072H146.2C147.622 5.74072 148.729 6.12772 149.521 6.90172C150.313 7.67572 150.709 8.76472 150.709 10.1687V10.6817C150.709 11.0597 150.52 11.2487 150.142 11.2487H147.847C147.469 11.2487 147.28 11.0597 147.28 10.6817V10.5197C147.28 9.81772 147.145 9.34072 146.875 9.08872C146.605 8.83672 146.11 8.71072 145.39 8.71072H144.337C143.599 8.71072 143.095 8.85472 142.825 9.14272C142.573 9.41272 142.447 9.95272 142.447 10.7627V11.2757C142.447 12.1217 143.185 12.6077 144.661 12.7337C146.191 12.8597 147.55 13.1657 148.738 13.6517C149.368 13.9217 149.89 14.4077 150.304 15.1097C150.736 15.7937 150.952 16.6757 150.952 17.7557V18.6737C150.952 20.0777 150.556 21.1667 149.764 21.9407C148.972 22.7147 147.874 23.1017 146.47 23.1017H143.527C142.123 23.1017 141.025 22.7147 140.233 21.9407C139.441 21.1667 139.045 20.0777 139.045 18.6737Z" fill="#290718"/>
<path d="M135.953 23.1017H127.124C126.746 23.1017 126.557 22.9127 126.557 22.5347V6.30772C126.557 5.92972 126.746 5.74072 127.124 5.74072H135.953C136.313 5.74072 136.493 5.92972 136.493 6.30772V8.14372C136.493 8.52172 136.313 8.71072 135.953 8.71072H130.31C130.094 8.71072 129.986 8.80972 129.986 9.00772V12.5177C129.986 12.7157 130.094 12.8147 130.31 12.8147H134.927C135.305 12.8147 135.494 13.0037 135.494 13.3817V15.2177C135.494 15.5957 135.305 15.7847 134.927 15.7847H130.31C130.094 15.7847 129.986 15.8837 129.986 16.0817V19.8347C129.986 20.0327 130.094 20.1317 130.31 20.1317H135.953C136.313 20.1317 136.493 20.3207 136.493 20.6987V22.5347C136.493 22.9127 136.313 23.1017 135.953 23.1017Z" fill="#290718"/>
<path d="M122.922 6.30772V22.5347C122.922 22.9127 122.733 23.1017 122.355 23.1017H120.06C119.682 23.1017 119.493 22.9127 119.493 22.5347V6.30772C119.493 5.92972 119.682 5.74072 120.06 5.74072H122.355C122.733 5.74072 122.922 5.92972 122.922 6.30772Z" fill="#290718"/>
<path d="M107.473 27.0936L105.187 27.2936C104.81 27.3266 104.606 27.1548 104.573 26.7782L103.158 10.6129C103.125 10.2364 103.297 10.0316 103.674 9.99868L110.075 9.43862C111.474 9.31625 112.601 9.60608 113.458 10.3081C114.314 11.0101 114.804 12.0605 114.926 13.4591L115.11 15.5571C115.287 17.5834 114.607 18.9981 113.069 19.8011L113.078 19.9087L116.481 25.655C116.68 26.0713 116.546 26.2998 116.08 26.3406L113.902 26.5312C113.579 26.5594 113.343 26.5439 113.193 26.4848C113.043 26.4256 112.913 26.2834 112.803 26.0581L109.605 20.4836L107.803 20.6413C107.588 20.6601 107.489 20.7681 107.506 20.9654L107.989 26.4793C108.021 26.8559 107.85 27.0606 107.473 27.0936ZM107.536 17.9001L110.172 17.6695C110.746 17.6193 111.157 17.4659 111.406 17.2092C111.653 16.9347 111.753 16.5284 111.706 15.9905L111.522 13.8925C111.473 13.3366 111.304 12.9449 111.013 12.7174C110.722 12.4899 110.289 12.4012 109.715 12.4514L107.08 12.6821C106.882 12.6993 106.792 12.8066 106.81 13.0038L107.214 17.6301C107.232 17.8274 107.339 17.9174 107.536 17.9001Z" fill="white"/>
<path d="M91.1944 19.0444L88.9082 18.8444C88.5316 18.8114 88.3598 18.6067 88.3928 18.2301L89.807 2.06484C89.84 1.68828 90.0447 1.51647 90.4213 1.54942L96.8228 2.10948C98.2215 2.23185 99.2816 2.71307 100.003 3.55315C100.725 4.39323 101.024 5.5126 100.902 6.91126L100.718 9.00925C100.541 11.0355 99.6254 12.3106 97.9715 12.8344L97.9621 12.942L100.315 19.1919C100.439 19.6363 100.268 19.8382 99.8016 19.7974L97.6229 19.6068C97.3001 19.5786 97.0702 19.5223 96.933 19.438C96.7958 19.3537 96.6926 19.1911 96.6233 18.9502L94.4419 12.905L92.6398 12.7474C92.4246 12.7286 92.3084 12.8178 92.2911 13.015L91.8087 18.529C91.7758 18.9055 91.571 19.0773 91.1944 19.0444ZM92.8529 10.0015L95.4888 10.2321C96.0626 10.2823 96.4942 10.2026 96.7836 9.99306C97.0745 9.76555 97.2435 9.38282 97.2906 8.84488L97.4741 6.74689C97.5228 6.19101 97.4236 5.77579 97.1766 5.50122C96.9296 5.22664 96.5191 5.06426 95.9453 5.01405L93.3094 4.78344C93.1122 4.76618 93.0049 4.85618 92.9877 5.05343L92.5829 9.67975C92.5657 9.877 92.6556 9.98425 92.8529 10.0015Z" fill="white"/>
<path d="M83.3032 23.1017H74.4742C74.0962 23.1017 73.9072 22.9127 73.9072 22.5347V6.30772C73.9072 5.92972 74.0962 5.74072 74.4742 5.74072H83.3032C83.6632 5.74072 83.8432 5.92972 83.8432 6.30772V8.14372C83.8432 8.52172 83.6632 8.71072 83.3032 8.71072H77.6602C77.4442 8.71072 77.3362 8.80972 77.3362 9.00772V12.5177C77.3362 12.7157 77.4442 12.8147 77.6602 12.8147H82.2772C82.6552 12.8147 82.8442 13.0037 82.8442 13.3817V15.2177C82.8442 15.5957 82.6552 15.7847 82.2772 15.7847H77.6602C77.4442 15.7847 77.3362 15.8837 77.3362 16.0817V19.8347C77.3362 20.0327 77.4442 20.1317 77.6602 20.1317H83.3032C83.6632 20.1317 83.8432 20.3207 83.8432 20.6987V22.5347C83.8432 22.9127 83.6632 23.1017 83.3032 23.1017Z" fill="#290718"/>
<path d="M62.6567 20.2397H65.6807C66.2747 20.2397 66.6977 20.1227 66.9497 19.8887C67.2197 19.6367 67.3547 19.2317 67.3547 18.6737V17.1077C67.3547 16.5497 67.2197 16.1537 66.9497 15.9197C66.6797 15.6857 66.2387 15.5687 65.6267 15.5687H62.6567C62.4587 15.5687 62.3597 15.6677 62.3597 15.8657V19.9427C62.3597 20.1407 62.4587 20.2397 62.6567 20.2397ZM62.6567 12.7877H65.4107C65.9867 12.7877 66.4097 12.6707 66.6797 12.4367C66.9497 12.1847 67.0847 11.7797 67.0847 11.2217V10.1687C67.0847 9.61072 66.9497 9.21472 66.6797 8.98072C66.4277 8.72872 66.0137 8.60272 65.4377 8.60272H62.6567C62.4587 8.60272 62.3597 8.70172 62.3597 8.89972V12.4907C62.3597 12.6887 62.4587 12.7877 62.6567 12.7877ZM58.9307 22.5347V6.30772C58.9307 5.92972 59.1197 5.74072 59.4977 5.74072H65.9777C67.3997 5.74072 68.4977 6.11872 69.2717 6.87472C70.0457 7.63072 70.4327 8.71072 70.4327 10.1147V11.2217C70.4327 12.7517 69.7217 13.7417 68.2997 14.1917C69.0197 14.2997 69.5957 14.5967 70.0277 15.0827C70.4597 15.5507 70.6757 16.2257 70.6757 17.1077V18.7277C70.6757 20.1317 70.2887 21.2117 69.5147 21.9677C68.7407 22.7237 67.6517 23.1017 66.2477 23.1017H59.4977C59.1197 23.1017 58.9307 22.9127 58.9307 22.5347Z" fill="#290718"/>
<path d="M46.737 23.1017H44.442C44.064 23.1017 43.875 22.9127 43.875 22.5347V6.30772C43.875 5.92972 44.064 5.74072 44.442 5.74072H46.737C47.115 5.74072 47.304 5.92972 47.304 6.30772V14.0027H47.358C47.502 13.5707 47.781 13.0127 48.195 12.3287L52.299 6.30772C52.533 5.92972 52.884 5.74072 53.352 5.74072H55.998C56.196 5.74072 56.313 5.80372 56.349 5.92972C56.403 6.03772 56.358 6.18172 56.214 6.36172L51.084 13.4627L56.808 22.4267C56.934 22.6427 56.952 22.8137 56.862 22.9397C56.79 23.0477 56.628 23.1017 56.376 23.1017H54.405C53.775 23.1017 53.352 22.9127 53.136 22.5347L49.005 15.9197L47.304 17.9177V22.5347C47.304 22.9127 47.115 23.1017 46.737 23.1017Z" fill="#290718"/>
<path d="M36.4751 23.1017H33.5321C32.1101 23.1017 31.0121 22.7237 30.2381 21.9677C29.4641 21.2117 29.0771 20.1227 29.0771 18.7007V10.1417C29.0771 8.71972 29.4641 7.63072 30.2381 6.87472C31.0121 6.11872 32.1101 5.74072 33.5321 5.74072H36.4751C37.8791 5.74072 38.9681 6.12772 39.7421 6.90172C40.5341 7.65772 40.9301 8.73772 40.9301 10.1417V11.4107C40.9301 11.8067 40.7321 12.0047 40.3361 12.0047H38.0681C37.6901 12.0047 37.5011 11.8067 37.5011 11.4107V10.3037C37.5011 9.72772 37.3751 9.32272 37.1231 9.08872C36.8891 8.83672 36.4841 8.71072 35.9081 8.71072H34.0721C33.5141 8.71072 33.1091 8.83672 32.8571 9.08872C32.6231 9.32272 32.5061 9.72772 32.5061 10.3037V18.5387C32.5061 19.1147 32.6231 19.5287 32.8571 19.7807C33.1091 20.0147 33.5141 20.1317 34.0721 20.1317H35.9081C36.4841 20.1317 36.8891 20.0147 37.1231 19.7807C37.3751 19.5287 37.5011 19.1147 37.5011 18.5387V17.4317C37.5011 17.0357 37.6901 16.8377 38.0681 16.8377H40.3361C40.7321 16.8377 40.9301 17.0357 40.9301 17.4317V18.7007C40.9301 20.1047 40.5341 21.1937 39.7421 21.9677C38.9681 22.7237 37.8791 23.1017 36.4751 23.1017Z" fill="#290718"/>
<path d="M16.1269 23.1017H13.5349C13.2109 23.1017 13.1029 22.9127 13.2109 22.5347L17.4769 6.30772C17.6029 5.92972 17.8729 5.74072 18.2869 5.74072H21.8779C22.3279 5.74072 22.5979 5.92972 22.6879 6.30772L26.9539 22.5347C27.0619 22.9127 26.9539 23.1017 26.6299 23.1017H24.0379C23.8399 23.1017 23.7049 23.0657 23.6329 22.9937C23.5609 22.9037 23.5069 22.7507 23.4709 22.5347L22.7149 19.5647H17.4499L16.6939 22.5347C16.6579 22.7507 16.5949 22.9037 16.5049 22.9937C16.4329 23.0657 16.3069 23.1017 16.1269 23.1017ZM20.0419 9.00772L18.0979 16.8107H22.0939L20.1499 9.00772H20.0419Z" fill="#290718"/>
<path d="M2.862 23.1017H0.567C0.189 23.1017 0 22.9127 0 22.5347V6.30772C0 5.92972 0.189 5.74072 0.567 5.74072H7.155C8.559 5.74072 9.648 6.12772 10.422 6.90172C11.196 7.65772 11.583 8.73772 11.583 10.1417V12.7337C11.583 14.1377 11.196 15.2267 10.422 16.0007C9.648 16.7567 8.559 17.1347 7.155 17.1347H3.753C3.537 17.1347 3.429 17.2337 3.429 17.4317V22.5347C3.429 22.9127 3.24 23.1017 2.862 23.1017ZM3.726 14.1377H6.588C7.164 14.1377 7.569 14.0207 7.803 13.7867C8.037 13.5347 8.154 13.1297 8.154 12.5717V10.3037C8.154 9.72772 8.037 9.32272 7.803 9.08872C7.569 8.83672 7.164 8.71072 6.588 8.71072H3.726C3.528 8.71072 3.429 8.80972 3.429 9.00772V13.8407C3.429 14.0387 3.528 14.1377 3.726 14.1377Z" fill="#290718"/>
</svg>
