<svg width="97" height="40" viewBox="0 0 97 40" fill="none" xmlns="http://www.w3.org/2000/svg">
<path d="M53.6459 16.3504H57.3932V28.5187C57.3932 29.8318 58.4576 30.8962 59.7707 30.8962C61.0837 30.8962 62.1482 29.8318 62.1482 28.5187V5.40121C62.1482 4.08816 61.0837 3.02373 59.7707 3.02373C58.4576 3.02373 57.3932 4.08816 57.3932 5.40121V12.3004H53.6459V8.98202C53.6459 7.65872 52.5732 6.58598 51.2499 6.58598C49.9266 6.58598 48.8538 7.65872 48.8538 8.98202V12.3004H47.3536C46.2353 12.3004 45.3287 13.207 45.3287 14.3254C45.3287 15.4438 46.2353 16.3504 47.3536 16.3504H48.8538V28.5002C48.8538 29.8235 49.9266 30.8962 51.2499 30.8962C52.5732 30.8962 53.6459 29.8235 53.6459 28.5002V16.3504ZM71.6393 32.869L71.6386 32.8708C71.2547 33.9313 70.796 34.541 70.2323 34.8905C69.6661 35.2417 68.9733 35.3438 68.0897 35.3438H67.5147C66.263 35.3438 65.2484 36.3584 65.2484 37.61C65.2484 38.6381 65.9441 39.5712 66.9862 39.6979C67.544 39.7658 68.133 39.8019 68.7576 39.8019C70.2824 39.8019 71.5462 39.4437 72.6039 38.6433C73.6595 37.8445 74.497 36.6148 75.1887 34.8949L75.1888 34.8947L82.9858 15.4344C83.5871 13.9337 82.482 12.3004 80.8653 12.3004C79.911 12.3004 79.0573 12.8936 78.7244 13.7879L74.4012 25.4025L70.3305 13.8635C70 12.9269 69.1148 12.3004 68.1215 12.3004C66.4761 12.3004 65.3435 13.9523 65.9366 15.4871L72.1409 31.5435L71.6393 32.869ZM3.37484 30.8962C4.75961 30.8962 5.8822 29.7737 5.8822 28.3889V19.3931H17.6398V28.3889C17.6398 29.7737 18.7623 30.8962 20.1471 30.8962C21.5319 30.8962 22.6545 29.7737 22.6545 28.3889V6.01347C22.6545 4.6287 21.5319 3.50611 20.1471 3.50611C18.7623 3.50611 17.6398 4.6287 17.6398 6.01347V14.7124H5.8822V6.01347C5.8822 4.6287 4.75961 3.50611 3.37484 3.50611C1.99006 3.50611 0.867476 4.6287 0.867476 6.01348V28.3889C0.867476 29.7737 1.99006 30.8962 3.37484 30.8962ZM41.4534 12.3004C40.1301 12.3004 39.0573 13.3732 39.0573 14.6965V22.0436C39.0573 23.7741 38.7161 25.0272 38.0438 25.8465C37.3759 26.6604 36.3618 27.0689 34.9597 27.0689C33.7229 27.0689 32.7925 26.7243 32.1671 25.9755C31.5373 25.2215 31.196 24.034 31.196 22.3034V14.6965C31.196 13.3732 30.1233 12.3004 28.8 12.3004C27.4767 12.3004 26.4039 13.3732 26.4039 14.6965V23.899C26.4039 26.1675 27.0322 28.0391 28.2099 29.345C29.3892 30.6527 31.1063 31.3786 33.2528 31.3786C35.6037 31.3786 37.897 30.3018 39.1048 28.6716L39.1285 28.8453C39.2887 30.0203 40.2922 30.8962 41.4781 30.8962C42.7877 30.8962 43.8494 29.8345 43.8494 28.5249V14.6965C43.8494 13.3732 42.7767 12.3004 41.4534 12.3004Z" fill="white" stroke="white" stroke-width="0.265049"/>
<path d="M90.6001 13.0831C86.9157 13.0831 84.1367 10.3042 84.1367 6.68217C84.1367 3.06019 86.9469 0.28125 90.6001 0.28125C94.2533 0.28125 97.001 3.02897 97.001 6.68217C97.001 10.3354 94.2533 13.0831 90.6001 13.0831ZM90.6001 12.0215C93.6288 12.0215 95.8769 9.74213 95.8769 6.68217C95.8769 3.62222 93.6288 1.34287 90.6001 1.34287C87.5401 1.34287 85.292 3.62222 85.292 6.68217C85.292 9.74213 87.5401 12.0215 90.6001 12.0215ZM89.2262 9.60162C89.2262 9.92064 88.9676 10.1793 88.6486 10.1793C88.3296 10.1793 88.0709 9.92064 88.0709 9.60162V3.55017C88.0709 3.24507 88.3183 2.99774 88.6234 2.99774H90.8811C92.4423 2.99774 93.5039 3.80956 93.5039 5.18342C93.5039 6.12014 92.9731 6.90074 92.0052 7.24421L93.1487 9.35195C93.3512 9.72521 93.081 10.1793 92.6564 10.1793C92.448 10.1793 92.2568 10.0636 92.1601 9.87901L90.9436 7.55645H89.2262V9.60162ZM92.255 5.24587C92.255 4.46527 91.7242 4.09058 90.8499 4.09058H89.2262V6.46361H90.8499C91.7242 6.46361 92.255 6.02647 92.255 5.24587Z" fill="white"/>
</svg>
