<svg width="136" height="61" viewBox="0 0 136 61" fill="none" xmlns="http://www.w3.org/2000/svg">
<path d="M102.993 29.624H105.821V38.806C105.821 39.7968 106.624 40.6 107.615 40.6C108.605 40.6 109.409 39.7968 109.409 38.806V21.362C109.409 20.3712 108.605 19.568 107.615 19.568C106.624 19.568 105.821 20.3712 105.821 21.362V26.568H102.993V24.064C102.993 23.0654 102.184 22.256 101.185 22.256C100.187 22.256 99.377 23.0654 99.377 24.064V26.568H98.245C97.4012 26.568 96.717 27.2521 96.717 28.096C96.717 28.9399 97.4012 29.624 98.245 29.624H99.377V38.792C99.377 39.7905 100.187 40.6 101.185 40.6C102.184 40.6 102.993 39.7905 102.993 38.792V29.624ZM116.57 42.0886L116.57 42.0899C116.28 42.8902 115.934 43.3502 115.509 43.614C115.082 43.8789 114.559 43.956 113.892 43.956H113.458C112.514 43.956 111.748 44.7216 111.748 45.6661C111.748 46.4418 112.273 47.1459 113.059 47.2416C113.48 47.2927 113.925 47.32 114.396 47.32C115.547 47.32 116.5 47.0497 117.298 46.4457C118.095 45.8429 118.727 44.9151 119.249 43.6173L119.249 43.6172L125.132 28.9328C125.586 27.8004 124.752 26.568 123.532 26.568C122.812 26.568 122.168 27.0156 121.917 27.6904L118.655 36.4545L115.583 27.7475C115.334 27.0407 114.666 26.568 113.916 26.568C112.674 26.568 111.82 27.8144 112.267 28.9726L116.949 41.0883L116.57 42.0886ZM65.0596 40.6C66.1045 40.6 66.9516 39.7529 66.9516 38.708V31.92H75.8236V38.708C75.8236 39.7529 76.6707 40.6 77.7156 40.6C78.7605 40.6 79.6076 39.7529 79.6076 38.708V21.824C79.6076 20.779 78.7605 19.932 77.7156 19.932C76.6707 19.932 75.8236 20.779 75.8236 21.824V28.388H66.9516V21.824C66.9516 20.779 66.1045 19.932 65.0596 19.932C64.0147 19.932 63.1676 20.779 63.1676 21.824V38.708C63.1676 39.7529 64.0147 40.6 65.0596 40.6ZM93.7928 26.568C92.7943 26.568 91.9848 27.3774 91.9848 28.376V33.92C91.9848 35.2257 91.7273 36.1713 91.22 36.7895C90.716 37.4037 89.9508 37.712 88.8928 37.712C87.9596 37.712 87.2576 37.4519 86.7856 36.8869C86.3104 36.3179 86.0528 35.4219 86.0528 34.116V28.376C86.0528 27.3774 85.2434 26.568 84.2448 26.568C83.2463 26.568 82.4368 27.3774 82.4368 28.376V35.32C82.4368 37.0318 82.9109 38.444 83.7996 39.4294C84.6894 40.4162 85.9852 40.964 87.6048 40.964C89.3788 40.964 91.1093 40.1515 92.0206 38.9213L92.0385 39.0524C92.1594 39.939 92.9167 40.6 93.8115 40.6C94.7997 40.6 95.6008 39.7988 95.6008 38.8106V28.376C95.6008 27.3774 94.7914 26.568 93.7928 26.568Z" fill="#050F27" stroke="black" stroke-width="0.2"/>
<rect x="39.8203" y="46.5391" width="31.2775" height="8.92857" rx="4.46429" transform="rotate(-120 39.8203 46.5391)" fill="#1D263C"/>
<rect x="5" y="36.2734" width="50" height="8.92857" rx="4.46429" fill="#050F27"/>
<path d="M30.5853 42.0731L30.5853 36.2717L27.2359 36.2717L30.5853 42.0731Z" fill="#050F27"/>
<path fill-rule="evenodd" clip-rule="evenodd" d="M10.7699 16.6804C8.63462 17.9131 7.90303 20.6435 9.13581 22.7787L22.0809 45.2003L25.1689 45.2003L30.5853 42.0731L27.2359 36.2717L16.8682 18.3144C15.6354 16.1792 12.9051 15.4476 10.7699 16.6804Z" fill="#050F27"/>
<path d="M30.5853 45.2003L30.5853 42.0731L25.1689 45.2003L30.5853 45.2003Z" fill="#050F27"/>
<path d="M130.877 27.16C128.097 27.16 126 25.0631 126 22.33C126 19.5969 128.12 17.5 130.877 17.5C133.634 17.5 135.707 19.5734 135.707 22.33C135.707 25.0866 133.634 27.16 130.877 27.16ZM130.877 26.3589C133.163 26.3589 134.859 24.639 134.859 22.33C134.859 20.021 133.163 18.3011 130.877 18.3011C128.568 18.3011 126.872 20.021 126.872 22.33C126.872 24.639 128.568 26.3589 130.877 26.3589ZM129.84 24.533C129.84 24.7737 129.645 24.9688 129.405 24.9688C129.164 24.9688 128.969 24.7737 128.969 24.533V19.9667C128.969 19.7364 129.155 19.5498 129.386 19.5498H131.089C132.267 19.5498 133.068 20.1624 133.068 21.1991C133.068 21.9059 132.668 22.4949 131.937 22.7541L132.8 24.3446C132.953 24.6262 132.749 24.9688 132.429 24.9688C132.272 24.9688 132.127 24.8816 132.054 24.7423L131.136 22.9897H129.84V24.533ZM132.126 21.2462C132.126 20.6572 131.725 20.3744 131.066 20.3744H129.84V22.1651H131.066C131.725 22.1651 132.126 21.8352 132.126 21.2462Z" fill="#050F27"/>
</svg>
