<svg width="16" height="16" viewBox="0 0 16 16" fill="none" xmlns="http://www.w3.org/2000/svg">
<path fill-rule="evenodd" clip-rule="evenodd" d="M8.42476 0.85999C7.92888 0.624795 7.35361 0.624795 6.85773 0.859989C6.51444 1.02281 6.27092 1.33101 6.05515 1.67934C5.83821 2.02957 5.60019 2.50562 5.30379 3.09844L5.30378 3.09846L5.29217 3.12168L5.05328 3.59947C4.85003 4.00597 4.79092 4.1125 4.71672 4.19017C4.64018 4.27028 4.5484 4.33428 4.44677 4.37841C4.34824 4.42118 4.22785 4.43982 3.77615 4.49001L3.55928 4.51411L3.53326 4.517H3.53325C2.82119 4.59611 2.25236 4.65931 1.82171 4.74691C1.39699 4.8333 1.00116 4.96118 0.724081 5.24388C0.327648 5.64835 0.141015 6.2137 0.218728 6.7747C0.273043 7.16678 0.514931 7.50522 0.804747 7.82751C1.09861 8.15424 1.51801 8.54375 2.04303 9.03126L2.06221 9.04908L2.29116 9.26165C2.68886 9.63094 2.79083 9.7354 2.84796 9.84664C2.90694 9.96154 2.93836 10.0885 2.93971 10.2177C2.94103 10.3425 2.89867 10.485 2.71654 11.0041L2.70794 11.0287L2.70792 11.0287C2.43915 11.7947 2.22629 12.4014 2.10544 12.8733C1.98804 13.3318 1.92226 13.782 2.07532 14.1718C2.29069 14.7204 2.75729 15.1316 3.32862 15.2762C3.73349 15.3787 4.16798 15.2593 4.6041 15.0873C5.05181 14.9107 5.61873 14.6272 6.33352 14.2698L6.35693 14.2581L6.91272 13.9802C7.28745 13.7928 7.38978 13.7467 7.48799 13.7283C7.58925 13.7093 7.69324 13.7093 7.79451 13.7283C7.89271 13.7467 7.99504 13.7928 8.36978 13.9802L8.92557 14.2581L8.94904 14.2698C9.6638 14.6272 10.2307 14.9107 10.6784 15.0873C11.1145 15.2593 11.549 15.3787 11.9538 15.2762C12.5252 15.1316 12.9918 14.7204 13.2072 14.1718C13.3602 13.782 13.2944 13.3318 13.1771 12.8733C13.0562 12.4014 12.8434 11.7947 12.5745 11.0287V11.0286L12.566 11.0041C12.3838 10.485 12.3415 10.3425 12.3427 10.2177C12.3441 10.0885 12.3755 9.96154 12.4346 9.84664C12.4917 9.7354 12.5936 9.63094 12.9914 9.26165L13.2203 9.04908L13.2395 9.03119C13.7645 8.54368 14.1839 8.15424 14.4777 7.82751C14.7676 7.50522 15.0095 7.16678 15.0638 6.7747C15.1415 6.2137 14.9549 5.64835 14.5584 5.24388C14.2813 4.96118 13.8855 4.8333 13.4608 4.74691C13.0301 4.65931 12.4613 4.59611 11.7493 4.517L11.7232 4.51411L11.5064 4.49001C11.0546 4.43982 10.9342 4.42118 10.8358 4.37841C10.7341 4.33428 10.6423 4.27028 10.5658 4.19017C10.4916 4.1125 10.4325 4.00597 10.2292 3.59946L9.99034 3.12168L9.9787 3.09845C9.68229 2.50562 9.44432 2.02957 9.22736 1.67934C9.0116 1.33101 8.76812 1.02281 8.42476 0.85999Z" fill="#FFC250"/>
</svg>
